<mxfile host="app.diagrams.net" agent="Mozilla/5.0 (Windows NT 10.0; Win64; x64) AppleWebKit/537.36 (KHTML, like Gecko) Chrome/133.0.0.0 Safari/537.36 Edg/133.0.0.0" version="26.0.14">
  <diagram id="R2lEEEUBdFMjLlhIrx00" name="Page-1">
    <mxGraphModel dx="1211" dy="669" grid="1" gridSize="10" guides="1" tooltips="1" connect="1" arrows="1" fold="1" page="1" pageScale="1" pageWidth="850" pageHeight="1100" math="0" shadow="0" extFonts="Permanent Marker^https://fonts.googleapis.com/css?family=Permanent+Marker">
      <root>
        <mxCell id="0" />
        <mxCell id="1" parent="0" />
        <mxCell id="kBf8COJMeBuEFkWBFfI5-1" value="departamento" style="rounded=0;whiteSpace=wrap;html=1;fillColor=#dae8fc;strokeColor=#6c8ebf;" vertex="1" parent="1">
          <mxGeometry x="110" y="340" width="90" height="30" as="geometry" />
        </mxCell>
        <mxCell id="kBf8COJMeBuEFkWBFfI5-2" value="cursos" style="rounded=0;whiteSpace=wrap;html=1;fillColor=#dae8fc;strokeColor=#6c8ebf;" vertex="1" parent="1">
          <mxGeometry x="710" y="340" width="90" height="30" as="geometry" />
        </mxCell>
        <mxCell id="kBf8COJMeBuEFkWBFfI5-126" value="" style="edgeStyle=orthogonalEdgeStyle;rounded=0;orthogonalLoop=1;jettySize=auto;html=1;" edge="1" parent="1" source="kBf8COJMeBuEFkWBFfI5-4" target="kBf8COJMeBuEFkWBFfI5-80">
          <mxGeometry relative="1" as="geometry" />
        </mxCell>
        <mxCell id="kBf8COJMeBuEFkWBFfI5-4" value="inscripciones" style="rounded=0;whiteSpace=wrap;html=1;fillColor=#dae8fc;strokeColor=#6c8ebf;" vertex="1" parent="1">
          <mxGeometry x="996.5" y="340" width="90" height="30" as="geometry" />
        </mxCell>
        <mxCell id="kBf8COJMeBuEFkWBFfI5-5" value="estudiante" style="rounded=0;whiteSpace=wrap;html=1;fillColor=#dae8fc;strokeColor=#6c8ebf;" vertex="1" parent="1">
          <mxGeometry x="1153" y="185" width="90" height="30" as="geometry" />
        </mxCell>
        <mxCell id="kBf8COJMeBuEFkWBFfI5-6" value="profesores" style="rounded=0;whiteSpace=wrap;html=1;fillColor=#dae8fc;strokeColor=#6c8ebf;" vertex="1" parent="1">
          <mxGeometry x="370" y="340" width="90" height="30" as="geometry" />
        </mxCell>
        <mxCell id="kBf8COJMeBuEFkWBFfI5-7" value="calificaciones" style="rounded=0;whiteSpace=wrap;html=1;fillColor=#dae8fc;strokeColor=#6c8ebf;" vertex="1" parent="1">
          <mxGeometry x="990" y="440" width="90" height="30" as="geometry" />
        </mxCell>
        <mxCell id="kBf8COJMeBuEFkWBFfI5-8" value="historial academico" style="rounded=0;whiteSpace=wrap;html=1;fillColor=#dae8fc;strokeColor=#6c8ebf;" vertex="1" parent="1">
          <mxGeometry x="1315" y="420" width="90" height="30" as="geometry" />
        </mxCell>
        <mxCell id="kBf8COJMeBuEFkWBFfI5-9" value="especialidades" style="rounded=0;whiteSpace=wrap;html=1;fillColor=#dae8fc;strokeColor=#6c8ebf;" vertex="1" parent="1">
          <mxGeometry x="370" y="160" width="90" height="30" as="geometry" />
        </mxCell>
        <mxCell id="kBf8COJMeBuEFkWBFfI5-10" value="id" style="ellipse;whiteSpace=wrap;html=1;fillColor=#ffe6cc;strokeColor=#d79b00;" vertex="1" parent="1">
          <mxGeometry x="15" y="370" width="60" height="40" as="geometry" />
        </mxCell>
        <mxCell id="kBf8COJMeBuEFkWBFfI5-14" value="id" style="ellipse;whiteSpace=wrap;html=1;fillColor=#ffe6cc;strokeColor=#d79b00;" vertex="1" parent="1">
          <mxGeometry x="320" y="70" width="60" height="40" as="geometry" />
        </mxCell>
        <mxCell id="kBf8COJMeBuEFkWBFfI5-15" value="id" style="ellipse;whiteSpace=wrap;html=1;fillColor=#ffe6cc;strokeColor=#d79b00;" vertex="1" parent="1">
          <mxGeometry x="225" y="220" width="60" height="40" as="geometry" />
        </mxCell>
        <mxCell id="kBf8COJMeBuEFkWBFfI5-16" value="materias aprobadas" style="ellipse;whiteSpace=wrap;html=1;" vertex="1" parent="1">
          <mxGeometry x="1370" y="495" width="90" height="45" as="geometry" />
        </mxCell>
        <mxCell id="kBf8COJMeBuEFkWBFfI5-17" value="nombre completo" style="ellipse;whiteSpace=wrap;html=1;" vertex="1" parent="1">
          <mxGeometry x="490" y="230" width="60" height="40" as="geometry" />
        </mxCell>
        <mxCell id="kBf8COJMeBuEFkWBFfI5-18" value="id" style="ellipse;whiteSpace=wrap;html=1;fillColor=#ffe6cc;strokeColor=#d79b00;" vertex="1" parent="1">
          <mxGeometry x="1290" y="500" width="60" height="40" as="geometry" />
        </mxCell>
        <mxCell id="kBf8COJMeBuEFkWBFfI5-19" value="id" style="ellipse;whiteSpace=wrap;html=1;fillColor=#ffe6cc;strokeColor=#d79b00;" vertex="1" parent="1">
          <mxGeometry x="610" y="260" width="60" height="40" as="geometry" />
        </mxCell>
        <mxCell id="kBf8COJMeBuEFkWBFfI5-21" value="&lt;font style=&quot;font-size: 10px;&quot;&gt;departamento&lt;/font&gt;" style="ellipse;whiteSpace=wrap;html=1;" vertex="1" parent="1">
          <mxGeometry x="10" y="290" width="70" height="40" as="geometry" />
        </mxCell>
        <mxCell id="kBf8COJMeBuEFkWBFfI5-22" value="&lt;span style=&quot;font-size: 10px;&quot;&gt;especialidad&lt;/span&gt;" style="ellipse;whiteSpace=wrap;html=1;" vertex="1" parent="1">
          <mxGeometry x="430" y="70" width="70" height="40" as="geometry" />
        </mxCell>
        <mxCell id="kBf8COJMeBuEFkWBFfI5-25" value="id" style="ellipse;whiteSpace=wrap;html=1;fillColor=#ffe6cc;strokeColor=#d79b00;" vertex="1" parent="1">
          <mxGeometry x="925" y="505" width="60" height="30" as="geometry" />
        </mxCell>
        <mxCell id="kBf8COJMeBuEFkWBFfI5-26" value="apellido" style="ellipse;whiteSpace=wrap;html=1;" vertex="1" parent="1">
          <mxGeometry x="560" y="140" width="60" height="40" as="geometry" />
        </mxCell>
        <mxCell id="kBf8COJMeBuEFkWBFfI5-27" value="nombre" style="ellipse;whiteSpace=wrap;html=1;" vertex="1" parent="1">
          <mxGeometry x="480" y="140" width="60" height="40" as="geometry" />
        </mxCell>
        <mxCell id="kBf8COJMeBuEFkWBFfI5-29" value="pertenece" style="shape=rhombus;perimeter=rhombusPerimeter;whiteSpace=wrap;html=1;align=center;" vertex="1" parent="1">
          <mxGeometry x="240" y="330" width="90" height="50" as="geometry" />
        </mxCell>
        <mxCell id="kBf8COJMeBuEFkWBFfI5-30" value="" style="endArrow=none;html=1;rounded=0;exitX=0.5;exitY=0;exitDx=0;exitDy=0;entryX=0.5;entryY=1;entryDx=0;entryDy=0;" edge="1" parent="1" source="kBf8COJMeBuEFkWBFfI5-17" target="kBf8COJMeBuEFkWBFfI5-27">
          <mxGeometry width="50" height="50" relative="1" as="geometry">
            <mxPoint x="460" y="310" as="sourcePoint" />
            <mxPoint x="510" y="260" as="targetPoint" />
          </mxGeometry>
        </mxCell>
        <mxCell id="kBf8COJMeBuEFkWBFfI5-31" value="" style="endArrow=none;html=1;rounded=0;exitX=0.75;exitY=0;exitDx=0;exitDy=0;entryX=0.5;entryY=1;entryDx=0;entryDy=0;" edge="1" parent="1" source="kBf8COJMeBuEFkWBFfI5-6" target="kBf8COJMeBuEFkWBFfI5-17">
          <mxGeometry width="50" height="50" relative="1" as="geometry">
            <mxPoint x="460" y="310" as="sourcePoint" />
            <mxPoint x="510" y="260" as="targetPoint" />
          </mxGeometry>
        </mxCell>
        <mxCell id="kBf8COJMeBuEFkWBFfI5-32" value="" style="endArrow=none;html=1;rounded=0;entryX=1;entryY=1;entryDx=0;entryDy=0;exitX=0.356;exitY=0.033;exitDx=0;exitDy=0;exitPerimeter=0;" edge="1" parent="1" source="kBf8COJMeBuEFkWBFfI5-6" target="kBf8COJMeBuEFkWBFfI5-15">
          <mxGeometry width="50" height="50" relative="1" as="geometry">
            <mxPoint x="460" y="310" as="sourcePoint" />
            <mxPoint x="510" y="260" as="targetPoint" />
          </mxGeometry>
        </mxCell>
        <mxCell id="kBf8COJMeBuEFkWBFfI5-33" value="" style="endArrow=none;html=1;rounded=0;exitX=1;exitY=0;exitDx=0;exitDy=0;entryX=0;entryY=0.5;entryDx=0;entryDy=0;" edge="1" parent="1" source="kBf8COJMeBuEFkWBFfI5-10" target="kBf8COJMeBuEFkWBFfI5-1">
          <mxGeometry width="50" height="50" relative="1" as="geometry">
            <mxPoint x="460" y="310" as="sourcePoint" />
            <mxPoint x="510" y="260" as="targetPoint" />
          </mxGeometry>
        </mxCell>
        <mxCell id="kBf8COJMeBuEFkWBFfI5-34" value="" style="endArrow=none;html=1;rounded=0;exitX=1;exitY=1;exitDx=0;exitDy=0;entryX=0;entryY=0.5;entryDx=0;entryDy=0;" edge="1" parent="1" source="kBf8COJMeBuEFkWBFfI5-21" target="kBf8COJMeBuEFkWBFfI5-1">
          <mxGeometry width="50" height="50" relative="1" as="geometry">
            <mxPoint x="460" y="310" as="sourcePoint" />
            <mxPoint x="510" y="260" as="targetPoint" />
          </mxGeometry>
        </mxCell>
        <mxCell id="kBf8COJMeBuEFkWBFfI5-35" value="" style="endArrow=none;html=1;rounded=0;exitX=1;exitY=0.5;exitDx=0;exitDy=0;entryX=0;entryY=0.5;entryDx=0;entryDy=0;" edge="1" parent="1" source="kBf8COJMeBuEFkWBFfI5-29" target="kBf8COJMeBuEFkWBFfI5-6">
          <mxGeometry width="50" height="50" relative="1" as="geometry">
            <mxPoint x="460" y="310" as="sourcePoint" />
            <mxPoint x="510" y="260" as="targetPoint" />
          </mxGeometry>
        </mxCell>
        <mxCell id="kBf8COJMeBuEFkWBFfI5-36" value="" style="endArrow=none;html=1;rounded=0;exitX=1;exitY=0.5;exitDx=0;exitDy=0;entryX=0;entryY=0.5;entryDx=0;entryDy=0;" edge="1" parent="1" source="kBf8COJMeBuEFkWBFfI5-1" target="kBf8COJMeBuEFkWBFfI5-29">
          <mxGeometry width="50" height="50" relative="1" as="geometry">
            <mxPoint x="260" y="465" as="sourcePoint" />
            <mxPoint x="310" y="415" as="targetPoint" />
          </mxGeometry>
        </mxCell>
        <mxCell id="kBf8COJMeBuEFkWBFfI5-98" value="1" style="edgeLabel;html=1;align=center;verticalAlign=middle;resizable=0;points=[];" vertex="1" connectable="0" parent="kBf8COJMeBuEFkWBFfI5-36">
          <mxGeometry y="3" relative="1" as="geometry">
            <mxPoint x="5" y="-12" as="offset" />
          </mxGeometry>
        </mxCell>
        <mxCell id="kBf8COJMeBuEFkWBFfI5-37" value="" style="endArrow=none;html=1;rounded=0;exitX=0.5;exitY=0;exitDx=0;exitDy=0;entryX=0.5;entryY=1;entryDx=0;entryDy=0;" edge="1" parent="1" source="kBf8COJMeBuEFkWBFfI5-6" target="kBf8COJMeBuEFkWBFfI5-41">
          <mxGeometry width="50" height="50" relative="1" as="geometry">
            <mxPoint x="600" y="300" as="sourcePoint" />
            <mxPoint x="650" y="250" as="targetPoint" />
          </mxGeometry>
        </mxCell>
        <mxCell id="kBf8COJMeBuEFkWBFfI5-38" value="" style="endArrow=none;html=1;rounded=0;entryX=0.5;entryY=1;entryDx=0;entryDy=0;exitX=0.5;exitY=0;exitDx=0;exitDy=0;" edge="1" parent="1" source="kBf8COJMeBuEFkWBFfI5-41" target="kBf8COJMeBuEFkWBFfI5-9">
          <mxGeometry width="50" height="50" relative="1" as="geometry">
            <mxPoint x="600" y="330" as="sourcePoint" />
            <mxPoint x="650" y="280" as="targetPoint" />
          </mxGeometry>
        </mxCell>
        <mxCell id="kBf8COJMeBuEFkWBFfI5-39" value="" style="endArrow=none;html=1;rounded=0;entryX=1;entryY=0.5;entryDx=0;entryDy=0;exitX=0.5;exitY=0;exitDx=0;exitDy=0;" edge="1" parent="1" source="kBf8COJMeBuEFkWBFfI5-5" target="kBf8COJMeBuEFkWBFfI5-55">
          <mxGeometry width="50" height="50" relative="1" as="geometry">
            <mxPoint x="910" y="255" as="sourcePoint" />
            <mxPoint x="960" y="205" as="targetPoint" />
          </mxGeometry>
        </mxCell>
        <mxCell id="kBf8COJMeBuEFkWBFfI5-40" value="" style="endArrow=none;html=1;rounded=0;entryX=0.5;entryY=1;entryDx=0;entryDy=0;exitX=0.5;exitY=0;exitDx=0;exitDy=0;" edge="1" parent="1" source="kBf8COJMeBuEFkWBFfI5-17" target="kBf8COJMeBuEFkWBFfI5-26">
          <mxGeometry width="50" height="50" relative="1" as="geometry">
            <mxPoint x="460" y="310" as="sourcePoint" />
            <mxPoint x="510" y="260" as="targetPoint" />
          </mxGeometry>
        </mxCell>
        <mxCell id="kBf8COJMeBuEFkWBFfI5-41" value="tiene" style="shape=rhombus;perimeter=rhombusPerimeter;whiteSpace=wrap;html=1;align=center;" vertex="1" parent="1">
          <mxGeometry x="370" y="240" width="90" height="50" as="geometry" />
        </mxCell>
        <mxCell id="kBf8COJMeBuEFkWBFfI5-42" value="" style="endArrow=none;html=1;rounded=0;exitX=0.5;exitY=0;exitDx=0;exitDy=0;entryX=0.5;entryY=1;entryDx=0;entryDy=0;" edge="1" parent="1" source="kBf8COJMeBuEFkWBFfI5-9" target="kBf8COJMeBuEFkWBFfI5-22">
          <mxGeometry width="50" height="50" relative="1" as="geometry">
            <mxPoint x="460" y="310" as="sourcePoint" />
            <mxPoint x="510" y="260" as="targetPoint" />
          </mxGeometry>
        </mxCell>
        <mxCell id="kBf8COJMeBuEFkWBFfI5-43" value="" style="endArrow=none;html=1;rounded=0;exitX=1;exitY=1;exitDx=0;exitDy=0;entryX=0.5;entryY=0;entryDx=0;entryDy=0;" edge="1" parent="1" source="kBf8COJMeBuEFkWBFfI5-14" target="kBf8COJMeBuEFkWBFfI5-9">
          <mxGeometry width="50" height="50" relative="1" as="geometry">
            <mxPoint x="460" y="310" as="sourcePoint" />
            <mxPoint x="510" y="260" as="targetPoint" />
          </mxGeometry>
        </mxCell>
        <mxCell id="kBf8COJMeBuEFkWBFfI5-45" value="nombre completo" style="ellipse;whiteSpace=wrap;html=1;" vertex="1" parent="1">
          <mxGeometry x="1150" y="65" width="60" height="40" as="geometry" />
        </mxCell>
        <mxCell id="kBf8COJMeBuEFkWBFfI5-46" value="&lt;font style=&quot;font-size: 10px;&quot;&gt;apellido&lt;/font&gt;" style="ellipse;whiteSpace=wrap;html=1;" vertex="1" parent="1">
          <mxGeometry x="1060" y="20" width="50" height="30" as="geometry" />
        </mxCell>
        <mxCell id="kBf8COJMeBuEFkWBFfI5-47" value="&lt;font style=&quot;font-size: 10px;&quot;&gt;nombre&lt;/font&gt;" style="ellipse;whiteSpace=wrap;html=1;" vertex="1" parent="1">
          <mxGeometry x="1060" y="75" width="50" height="30" as="geometry" />
        </mxCell>
        <mxCell id="kBf8COJMeBuEFkWBFfI5-48" value="" style="endArrow=none;html=1;rounded=0;exitX=0;exitY=0.5;exitDx=0;exitDy=0;entryX=1;entryY=0.5;entryDx=0;entryDy=0;" edge="1" parent="1" source="kBf8COJMeBuEFkWBFfI5-45" target="kBf8COJMeBuEFkWBFfI5-47">
          <mxGeometry width="50" height="50" relative="1" as="geometry">
            <mxPoint x="1270" y="160" as="sourcePoint" />
            <mxPoint x="1320" y="110" as="targetPoint" />
          </mxGeometry>
        </mxCell>
        <mxCell id="kBf8COJMeBuEFkWBFfI5-49" value="" style="endArrow=none;html=1;rounded=0;entryX=1.06;entryY=0.753;entryDx=0;entryDy=0;exitX=0;exitY=0.5;exitDx=0;exitDy=0;entryPerimeter=0;" edge="1" parent="1" source="kBf8COJMeBuEFkWBFfI5-45" target="kBf8COJMeBuEFkWBFfI5-46">
          <mxGeometry width="50" height="50" relative="1" as="geometry">
            <mxPoint x="1270" y="160" as="sourcePoint" />
            <mxPoint x="1320" y="110" as="targetPoint" />
          </mxGeometry>
        </mxCell>
        <mxCell id="kBf8COJMeBuEFkWBFfI5-50" value="direccion" style="ellipse;whiteSpace=wrap;html=1;" vertex="1" parent="1">
          <mxGeometry x="1230" y="75" width="60" height="40" as="geometry" />
        </mxCell>
        <mxCell id="kBf8COJMeBuEFkWBFfI5-51" value="&lt;font style=&quot;font-size: 10px;&quot;&gt;colonia&lt;/font&gt;" style="ellipse;whiteSpace=wrap;html=1;" vertex="1" parent="1">
          <mxGeometry x="1275" y="10" width="45" height="30" as="geometry" />
        </mxCell>
        <mxCell id="kBf8COJMeBuEFkWBFfI5-52" value="&lt;font style=&quot;font-size: 10px;&quot;&gt;ciudad&lt;/font&gt;" style="ellipse;whiteSpace=wrap;html=1;" vertex="1" parent="1">
          <mxGeometry x="1200" y="10" width="40" height="30" as="geometry" />
        </mxCell>
        <mxCell id="kBf8COJMeBuEFkWBFfI5-53" value="" style="endArrow=none;html=1;rounded=0;exitX=0.5;exitY=0;exitDx=0;exitDy=0;entryX=0.5;entryY=1;entryDx=0;entryDy=0;" edge="1" parent="1" source="kBf8COJMeBuEFkWBFfI5-50" target="kBf8COJMeBuEFkWBFfI5-52">
          <mxGeometry width="50" height="50" relative="1" as="geometry">
            <mxPoint x="990" y="190" as="sourcePoint" />
            <mxPoint x="1040" y="140" as="targetPoint" />
          </mxGeometry>
        </mxCell>
        <mxCell id="kBf8COJMeBuEFkWBFfI5-54" value="" style="endArrow=none;html=1;rounded=0;entryX=0.5;entryY=1;entryDx=0;entryDy=0;" edge="1" parent="1" source="kBf8COJMeBuEFkWBFfI5-50" target="kBf8COJMeBuEFkWBFfI5-51">
          <mxGeometry width="50" height="50" relative="1" as="geometry">
            <mxPoint x="990" y="190" as="sourcePoint" />
            <mxPoint x="1040" y="140" as="targetPoint" />
          </mxGeometry>
        </mxCell>
        <mxCell id="kBf8COJMeBuEFkWBFfI5-55" value="id" style="ellipse;whiteSpace=wrap;html=1;fillColor=#ffe6cc;strokeColor=#d79b00;" vertex="1" parent="1">
          <mxGeometry x="1100" y="130" width="50" height="30" as="geometry" />
        </mxCell>
        <mxCell id="kBf8COJMeBuEFkWBFfI5-56" value="&lt;font style=&quot;font-size: 10px;&quot;&gt;fecha_nacimiento&lt;/font&gt;" style="ellipse;whiteSpace=wrap;html=1;" vertex="1" parent="1">
          <mxGeometry x="1315" y="80" width="90" height="40" as="geometry" />
        </mxCell>
        <mxCell id="kBf8COJMeBuEFkWBFfI5-57" value="&lt;span style=&quot;font-size: 10px;&quot;&gt;telefono&lt;/span&gt;" style="ellipse;whiteSpace=wrap;html=1;" vertex="1" parent="1">
          <mxGeometry x="1320" y="130" width="50" height="40" as="geometry" />
        </mxCell>
        <mxCell id="kBf8COJMeBuEFkWBFfI5-58" value="" style="endArrow=none;html=1;rounded=0;entryX=1;entryY=0.5;entryDx=0;entryDy=0;exitX=0;exitY=0.5;exitDx=0;exitDy=0;" edge="1" parent="1" source="kBf8COJMeBuEFkWBFfI5-70" target="kBf8COJMeBuEFkWBFfI5-6">
          <mxGeometry width="50" height="50" relative="1" as="geometry">
            <mxPoint x="750" y="410" as="sourcePoint" />
            <mxPoint x="800" y="360" as="targetPoint" />
          </mxGeometry>
        </mxCell>
        <mxCell id="kBf8COJMeBuEFkWBFfI5-59" value="" style="endArrow=none;html=1;rounded=0;entryX=0.5;entryY=1;entryDx=0;entryDy=0;exitX=0.5;exitY=0;exitDx=0;exitDy=0;" edge="1" parent="1" source="kBf8COJMeBuEFkWBFfI5-5" target="kBf8COJMeBuEFkWBFfI5-50">
          <mxGeometry width="50" height="50" relative="1" as="geometry">
            <mxPoint x="1270" y="190" as="sourcePoint" />
            <mxPoint x="1120" y="250" as="targetPoint" />
          </mxGeometry>
        </mxCell>
        <mxCell id="kBf8COJMeBuEFkWBFfI5-60" value="" style="endArrow=none;html=1;rounded=0;entryX=0;entryY=1;entryDx=0;entryDy=0;exitX=0.5;exitY=0;exitDx=0;exitDy=0;" edge="1" parent="1" source="kBf8COJMeBuEFkWBFfI5-5" target="kBf8COJMeBuEFkWBFfI5-57">
          <mxGeometry width="50" height="50" relative="1" as="geometry">
            <mxPoint x="1070" y="300" as="sourcePoint" />
            <mxPoint x="1120" y="250" as="targetPoint" />
          </mxGeometry>
        </mxCell>
        <mxCell id="kBf8COJMeBuEFkWBFfI5-61" value="" style="endArrow=none;html=1;rounded=0;entryX=0.5;entryY=1;entryDx=0;entryDy=0;exitX=0.5;exitY=0;exitDx=0;exitDy=0;" edge="1" parent="1" source="kBf8COJMeBuEFkWBFfI5-5" target="kBf8COJMeBuEFkWBFfI5-45">
          <mxGeometry width="50" height="50" relative="1" as="geometry">
            <mxPoint x="1070" y="300" as="sourcePoint" />
            <mxPoint x="1120" y="250" as="targetPoint" />
          </mxGeometry>
        </mxCell>
        <mxCell id="kBf8COJMeBuEFkWBFfI5-62" value="" style="endArrow=none;html=1;rounded=0;entryX=0;entryY=0.5;entryDx=0;entryDy=0;exitX=0.5;exitY=0;exitDx=0;exitDy=0;" edge="1" parent="1" source="kBf8COJMeBuEFkWBFfI5-5" target="kBf8COJMeBuEFkWBFfI5-56">
          <mxGeometry width="50" height="50" relative="1" as="geometry">
            <mxPoint x="1070" y="300" as="sourcePoint" />
            <mxPoint x="1120" y="250" as="targetPoint" />
          </mxGeometry>
        </mxCell>
        <mxCell id="kBf8COJMeBuEFkWBFfI5-63" value="&lt;span style=&quot;font-size: 10px;&quot;&gt;horario&lt;/span&gt;" style="ellipse;whiteSpace=wrap;html=1;" vertex="1" parent="1">
          <mxGeometry x="740" y="210" width="60" height="30" as="geometry" />
        </mxCell>
        <mxCell id="kBf8COJMeBuEFkWBFfI5-64" value="&lt;span style=&quot;font-size: 10px;&quot;&gt;creditos&lt;/span&gt;" style="ellipse;whiteSpace=wrap;html=1;" vertex="1" parent="1">
          <mxGeometry x="810" y="230" width="70" height="40" as="geometry" />
        </mxCell>
        <mxCell id="kBf8COJMeBuEFkWBFfI5-65" value="&lt;span style=&quot;font-size: 10px;&quot;&gt;nombre&lt;/span&gt;" style="ellipse;whiteSpace=wrap;html=1;" vertex="1" parent="1">
          <mxGeometry x="670" y="210" width="60" height="40" as="geometry" />
        </mxCell>
        <mxCell id="kBf8COJMeBuEFkWBFfI5-66" value="" style="endArrow=none;html=1;rounded=0;entryX=0.5;entryY=1;entryDx=0;entryDy=0;exitX=0.5;exitY=0;exitDx=0;exitDy=0;" edge="1" parent="1" source="kBf8COJMeBuEFkWBFfI5-2" target="kBf8COJMeBuEFkWBFfI5-63">
          <mxGeometry width="50" height="50" relative="1" as="geometry">
            <mxPoint x="770" y="330" as="sourcePoint" />
            <mxPoint x="168" y="565" as="targetPoint" />
          </mxGeometry>
        </mxCell>
        <mxCell id="kBf8COJMeBuEFkWBFfI5-67" value="" style="endArrow=none;html=1;rounded=0;exitX=0.5;exitY=0;exitDx=0;exitDy=0;entryX=0.5;entryY=1;entryDx=0;entryDy=0;" edge="1" parent="1" source="kBf8COJMeBuEFkWBFfI5-2" target="kBf8COJMeBuEFkWBFfI5-64">
          <mxGeometry width="50" height="50" relative="1" as="geometry">
            <mxPoint x="118" y="615" as="sourcePoint" />
            <mxPoint x="168" y="565" as="targetPoint" />
          </mxGeometry>
        </mxCell>
        <mxCell id="kBf8COJMeBuEFkWBFfI5-68" value="" style="endArrow=none;html=1;rounded=0;entryX=0.643;entryY=0.955;entryDx=0;entryDy=0;exitX=0.5;exitY=0;exitDx=0;exitDy=0;entryPerimeter=0;" edge="1" parent="1" source="kBf8COJMeBuEFkWBFfI5-2" target="kBf8COJMeBuEFkWBFfI5-65">
          <mxGeometry width="50" height="50" relative="1" as="geometry">
            <mxPoint x="750" y="320" as="sourcePoint" />
            <mxPoint x="168" y="565" as="targetPoint" />
          </mxGeometry>
        </mxCell>
        <mxCell id="kBf8COJMeBuEFkWBFfI5-69" value="" style="endArrow=none;html=1;rounded=0;exitX=1;exitY=1;exitDx=0;exitDy=0;entryX=0.5;entryY=0;entryDx=0;entryDy=0;" edge="1" parent="1" source="kBf8COJMeBuEFkWBFfI5-19" target="kBf8COJMeBuEFkWBFfI5-2">
          <mxGeometry width="50" height="50" relative="1" as="geometry">
            <mxPoint x="118" y="615" as="sourcePoint" />
            <mxPoint x="403" y="692.5" as="targetPoint" />
          </mxGeometry>
        </mxCell>
        <mxCell id="kBf8COJMeBuEFkWBFfI5-70" value="asignacion&lt;div&gt;cursos-profesores&lt;/div&gt;" style="shape=rhombus;perimeter=rhombusPerimeter;whiteSpace=wrap;html=1;align=center;" vertex="1" parent="1">
          <mxGeometry x="500" y="310" width="140" height="90" as="geometry" />
        </mxCell>
        <mxCell id="kBf8COJMeBuEFkWBFfI5-71" value="" style="endArrow=none;html=1;rounded=0;exitX=1;exitY=0.5;exitDx=0;exitDy=0;entryX=0;entryY=0.5;entryDx=0;entryDy=0;" edge="1" parent="1" source="kBf8COJMeBuEFkWBFfI5-2" target="kBf8COJMeBuEFkWBFfI5-75">
          <mxGeometry width="50" height="50" relative="1" as="geometry">
            <mxPoint x="1320" y="510" as="sourcePoint" />
            <mxPoint x="1370" y="460" as="targetPoint" />
          </mxGeometry>
        </mxCell>
        <mxCell id="kBf8COJMeBuEFkWBFfI5-72" value="" style="endArrow=none;html=1;rounded=0;exitX=1;exitY=0.5;exitDx=0;exitDy=0;entryX=0;entryY=0.5;entryDx=0;entryDy=0;" edge="1" parent="1" source="kBf8COJMeBuEFkWBFfI5-75" target="kBf8COJMeBuEFkWBFfI5-4">
          <mxGeometry width="50" height="50" relative="1" as="geometry">
            <mxPoint x="1330" y="570" as="sourcePoint" />
            <mxPoint x="1380" y="520" as="targetPoint" />
          </mxGeometry>
        </mxCell>
        <mxCell id="kBf8COJMeBuEFkWBFfI5-73" value="" style="endArrow=none;html=1;rounded=0;entryX=1;entryY=0.5;entryDx=0;entryDy=0;exitX=0;exitY=0.5;exitDx=0;exitDy=0;" edge="1" parent="1" source="kBf8COJMeBuEFkWBFfI5-2" target="kBf8COJMeBuEFkWBFfI5-70">
          <mxGeometry width="50" height="50" relative="1" as="geometry">
            <mxPoint x="750" y="410" as="sourcePoint" />
            <mxPoint x="800" y="360" as="targetPoint" />
          </mxGeometry>
        </mxCell>
        <mxCell id="kBf8COJMeBuEFkWBFfI5-74" style="edgeStyle=orthogonalEdgeStyle;rounded=0;orthogonalLoop=1;jettySize=auto;html=1;exitX=0.5;exitY=1;exitDx=0;exitDy=0;" edge="1" parent="1" source="kBf8COJMeBuEFkWBFfI5-4" target="kBf8COJMeBuEFkWBFfI5-4">
          <mxGeometry relative="1" as="geometry" />
        </mxCell>
        <mxCell id="kBf8COJMeBuEFkWBFfI5-75" value="se inscribe&lt;div&gt;en&lt;/div&gt;" style="shape=rhombus;perimeter=rhombusPerimeter;whiteSpace=wrap;html=1;align=center;" vertex="1" parent="1">
          <mxGeometry x="860" y="320" width="90" height="70" as="geometry" />
        </mxCell>
        <mxCell id="kBf8COJMeBuEFkWBFfI5-76" value="inscribe a un" style="shape=rhombus;perimeter=rhombusPerimeter;whiteSpace=wrap;html=1;align=center;" vertex="1" parent="1">
          <mxGeometry x="996.5" y="230" width="90" height="50" as="geometry" />
        </mxCell>
        <mxCell id="kBf8COJMeBuEFkWBFfI5-77" value="" style="endArrow=none;html=1;rounded=0;entryX=1;entryY=0.5;entryDx=0;entryDy=0;exitX=0;exitY=0.5;exitDx=0;exitDy=0;" edge="1" parent="1" source="kBf8COJMeBuEFkWBFfI5-7" target="kBf8COJMeBuEFkWBFfI5-81">
          <mxGeometry width="50" height="50" relative="1" as="geometry">
            <mxPoint x="1350" y="490" as="sourcePoint" />
            <mxPoint x="1390" y="440" as="targetPoint" />
          </mxGeometry>
        </mxCell>
        <mxCell id="kBf8COJMeBuEFkWBFfI5-78" value="" style="endArrow=none;html=1;rounded=0;entryX=0.5;entryY=1;entryDx=0;entryDy=0;exitX=0.5;exitY=0;exitDx=0;exitDy=0;" edge="1" parent="1" source="kBf8COJMeBuEFkWBFfI5-4" target="kBf8COJMeBuEFkWBFfI5-76">
          <mxGeometry width="50" height="50" relative="1" as="geometry">
            <mxPoint x="1040" y="390" as="sourcePoint" />
            <mxPoint x="1090" y="340" as="targetPoint" />
          </mxGeometry>
        </mxCell>
        <mxCell id="kBf8COJMeBuEFkWBFfI5-79" value="" style="endArrow=none;html=1;rounded=0;entryX=0;entryY=0.5;entryDx=0;entryDy=0;exitX=0.5;exitY=0;exitDx=0;exitDy=0;" edge="1" parent="1" source="kBf8COJMeBuEFkWBFfI5-76" target="kBf8COJMeBuEFkWBFfI5-5">
          <mxGeometry width="50" height="50" relative="1" as="geometry">
            <mxPoint x="1040" y="390" as="sourcePoint" />
            <mxPoint x="1090" y="340" as="targetPoint" />
            <Array as="points">
              <mxPoint x="1040" y="200" />
            </Array>
          </mxGeometry>
        </mxCell>
        <mxCell id="kBf8COJMeBuEFkWBFfI5-80" value="se evalúa en&amp;nbsp;" style="shape=rhombus;perimeter=rhombusPerimeter;whiteSpace=wrap;html=1;align=center;" vertex="1" parent="1">
          <mxGeometry x="1154" y="300" width="90" height="50" as="geometry" />
        </mxCell>
        <mxCell id="kBf8COJMeBuEFkWBFfI5-81" value="tiene" style="shape=rhombus;perimeter=rhombusPerimeter;whiteSpace=wrap;html=1;align=center;" vertex="1" parent="1">
          <mxGeometry x="800" y="430" width="90" height="50" as="geometry" />
        </mxCell>
        <mxCell id="kBf8COJMeBuEFkWBFfI5-82" value="&lt;span style=&quot;font-size: 10px;&quot;&gt;calificacon&lt;/span&gt;" style="ellipse;whiteSpace=wrap;html=1;" vertex="1" parent="1">
          <mxGeometry x="1000" y="505" width="70" height="35" as="geometry" />
        </mxCell>
        <mxCell id="kBf8COJMeBuEFkWBFfI5-84" value="" style="endArrow=none;html=1;rounded=0;exitX=0.5;exitY=1;exitDx=0;exitDy=0;entryX=0.5;entryY=0;entryDx=0;entryDy=0;" edge="1" parent="1" source="kBf8COJMeBuEFkWBFfI5-5" target="kBf8COJMeBuEFkWBFfI5-80">
          <mxGeometry width="50" height="50" relative="1" as="geometry">
            <mxPoint x="1080" y="410" as="sourcePoint" />
            <mxPoint x="1130" y="360" as="targetPoint" />
            <Array as="points" />
          </mxGeometry>
        </mxCell>
        <mxCell id="kBf8COJMeBuEFkWBFfI5-85" value="" style="endArrow=none;html=1;rounded=0;entryX=0.5;entryY=1;entryDx=0;entryDy=0;exitX=1;exitY=0.5;exitDx=0;exitDy=0;" edge="1" parent="1" source="kBf8COJMeBuEFkWBFfI5-7" target="kBf8COJMeBuEFkWBFfI5-80">
          <mxGeometry width="50" height="50" relative="1" as="geometry">
            <mxPoint x="1080" y="410" as="sourcePoint" />
            <mxPoint x="1130" y="360" as="targetPoint" />
            <Array as="points">
              <mxPoint x="1200" y="455" />
            </Array>
          </mxGeometry>
        </mxCell>
        <mxCell id="kBf8COJMeBuEFkWBFfI5-86" value="" style="endArrow=none;html=1;rounded=0;exitX=0.5;exitY=1;exitDx=0;exitDy=0;entryX=0;entryY=0.5;entryDx=0;entryDy=0;" edge="1" parent="1" source="kBf8COJMeBuEFkWBFfI5-2" target="kBf8COJMeBuEFkWBFfI5-81">
          <mxGeometry width="50" height="50" relative="1" as="geometry">
            <mxPoint x="1010" y="420" as="sourcePoint" />
            <mxPoint x="1130" y="360" as="targetPoint" />
            <Array as="points">
              <mxPoint x="755" y="455" />
            </Array>
          </mxGeometry>
        </mxCell>
        <mxCell id="kBf8COJMeBuEFkWBFfI5-88" value="" style="endArrow=none;html=1;rounded=0;exitX=0.5;exitY=0;exitDx=0;exitDy=0;entryX=0.5;entryY=1;entryDx=0;entryDy=0;" edge="1" parent="1" source="kBf8COJMeBuEFkWBFfI5-82" target="kBf8COJMeBuEFkWBFfI5-7">
          <mxGeometry width="50" height="50" relative="1" as="geometry">
            <mxPoint x="1080" y="410" as="sourcePoint" />
            <mxPoint x="1130" y="360" as="targetPoint" />
          </mxGeometry>
        </mxCell>
        <mxCell id="kBf8COJMeBuEFkWBFfI5-89" value="" style="endArrow=none;html=1;rounded=0;exitX=0.5;exitY=0;exitDx=0;exitDy=0;entryX=0.5;entryY=1;entryDx=0;entryDy=0;" edge="1" parent="1" source="kBf8COJMeBuEFkWBFfI5-25" target="kBf8COJMeBuEFkWBFfI5-7">
          <mxGeometry width="50" height="50" relative="1" as="geometry">
            <mxPoint x="1080" y="410" as="sourcePoint" />
            <mxPoint x="1130" y="360" as="targetPoint" />
          </mxGeometry>
        </mxCell>
        <mxCell id="kBf8COJMeBuEFkWBFfI5-91" value="registra&lt;div&gt;un&lt;/div&gt;" style="shape=rhombus;perimeter=rhombusPerimeter;whiteSpace=wrap;html=1;align=center;" vertex="1" parent="1">
          <mxGeometry x="1315" y="300" width="90" height="50" as="geometry" />
        </mxCell>
        <mxCell id="kBf8COJMeBuEFkWBFfI5-92" value="" style="endArrow=none;html=1;rounded=0;entryX=1;entryY=0.5;entryDx=0;entryDy=0;exitX=0.5;exitY=0;exitDx=0;exitDy=0;" edge="1" parent="1" source="kBf8COJMeBuEFkWBFfI5-91" target="kBf8COJMeBuEFkWBFfI5-5">
          <mxGeometry width="50" height="50" relative="1" as="geometry">
            <mxPoint x="1280" y="320" as="sourcePoint" />
            <mxPoint x="1330" y="270" as="targetPoint" />
            <Array as="points">
              <mxPoint x="1360" y="200" />
            </Array>
          </mxGeometry>
        </mxCell>
        <mxCell id="kBf8COJMeBuEFkWBFfI5-93" value="" style="endArrow=none;html=1;rounded=0;entryX=0.5;entryY=1;entryDx=0;entryDy=0;exitX=0.5;exitY=0;exitDx=0;exitDy=0;" edge="1" parent="1" source="kBf8COJMeBuEFkWBFfI5-8" target="kBf8COJMeBuEFkWBFfI5-91">
          <mxGeometry width="50" height="50" relative="1" as="geometry">
            <mxPoint x="1240" y="480" as="sourcePoint" />
            <mxPoint x="1290" y="430" as="targetPoint" />
          </mxGeometry>
        </mxCell>
        <mxCell id="kBf8COJMeBuEFkWBFfI5-94" style="edgeStyle=orthogonalEdgeStyle;rounded=0;orthogonalLoop=1;jettySize=auto;html=1;exitX=0.5;exitY=1;exitDx=0;exitDy=0;" edge="1" parent="1" source="kBf8COJMeBuEFkWBFfI5-8" target="kBf8COJMeBuEFkWBFfI5-8">
          <mxGeometry relative="1" as="geometry" />
        </mxCell>
        <mxCell id="kBf8COJMeBuEFkWBFfI5-96" value="" style="endArrow=none;html=1;rounded=0;entryX=0.5;entryY=1;entryDx=0;entryDy=0;exitX=1;exitY=0;exitDx=0;exitDy=0;" edge="1" parent="1" source="kBf8COJMeBuEFkWBFfI5-18" target="kBf8COJMeBuEFkWBFfI5-8">
          <mxGeometry width="50" height="50" relative="1" as="geometry">
            <mxPoint x="1180" y="540" as="sourcePoint" />
            <mxPoint x="1230" y="490" as="targetPoint" />
          </mxGeometry>
        </mxCell>
        <mxCell id="kBf8COJMeBuEFkWBFfI5-97" value="" style="endArrow=none;html=1;rounded=0;entryX=0.5;entryY=1;entryDx=0;entryDy=0;exitX=0;exitY=0;exitDx=0;exitDy=0;" edge="1" parent="1" source="kBf8COJMeBuEFkWBFfI5-16" target="kBf8COJMeBuEFkWBFfI5-8">
          <mxGeometry width="50" height="50" relative="1" as="geometry">
            <mxPoint x="1330" y="530" as="sourcePoint" />
            <mxPoint x="1380" y="480" as="targetPoint" />
          </mxGeometry>
        </mxCell>
        <mxCell id="kBf8COJMeBuEFkWBFfI5-99" value="N" style="text;html=1;align=center;verticalAlign=middle;resizable=0;points=[];autosize=1;strokeColor=none;fillColor=none;" vertex="1" parent="1">
          <mxGeometry x="335" y="328" width="30" height="30" as="geometry" />
        </mxCell>
        <mxCell id="kBf8COJMeBuEFkWBFfI5-100" value="1" style="edgeLabel;html=1;align=center;verticalAlign=middle;resizable=0;points=[];" vertex="1" connectable="0" parent="1">
          <mxGeometry x="425" y="220" as="geometry" />
        </mxCell>
        <mxCell id="kBf8COJMeBuEFkWBFfI5-101" value="1" style="edgeLabel;html=1;align=center;verticalAlign=middle;resizable=0;points=[];" vertex="1" connectable="0" parent="1">
          <mxGeometry x="760" y="410" as="geometry" />
        </mxCell>
        <mxCell id="kBf8COJMeBuEFkWBFfI5-102" value="1" style="edgeLabel;html=1;align=center;verticalAlign=middle;resizable=0;points=[];" vertex="1" connectable="0" parent="1">
          <mxGeometry x="1370" y="400" as="geometry" />
        </mxCell>
        <mxCell id="kBf8COJMeBuEFkWBFfI5-103" value="1" style="edgeLabel;html=1;align=center;verticalAlign=middle;resizable=0;points=[];" vertex="1" connectable="0" parent="1">
          <mxGeometry x="640" y="520" as="geometry">
            <mxPoint x="568" y="-269" as="offset" />
          </mxGeometry>
        </mxCell>
        <mxCell id="kBf8COJMeBuEFkWBFfI5-104" value="1" style="edgeLabel;html=1;align=center;verticalAlign=middle;resizable=0;points=[];" vertex="1" connectable="0" parent="1">
          <mxGeometry x="1275" y="210" as="geometry" />
        </mxCell>
        <mxCell id="kBf8COJMeBuEFkWBFfI5-106" value="N" style="text;html=1;align=center;verticalAlign=middle;resizable=0;points=[];autosize=1;strokeColor=none;fillColor=none;" vertex="1" parent="1">
          <mxGeometry x="470" y="330" width="30" height="30" as="geometry" />
        </mxCell>
        <mxCell id="kBf8COJMeBuEFkWBFfI5-107" value="N" style="text;html=1;align=center;verticalAlign=middle;resizable=0;points=[];autosize=1;strokeColor=none;fillColor=none;" vertex="1" parent="1">
          <mxGeometry x="920" y="430" width="30" height="30" as="geometry" />
        </mxCell>
        <mxCell id="kBf8COJMeBuEFkWBFfI5-109" value="N" style="text;html=1;align=center;verticalAlign=middle;resizable=0;points=[];autosize=1;strokeColor=none;fillColor=none;" vertex="1" parent="1">
          <mxGeometry x="1120" y="430" width="30" height="30" as="geometry" />
        </mxCell>
        <mxCell id="kBf8COJMeBuEFkWBFfI5-110" value="N" style="text;html=1;align=center;verticalAlign=middle;resizable=0;points=[];autosize=1;strokeColor=none;fillColor=none;" vertex="1" parent="1">
          <mxGeometry x="415" y="300" width="30" height="30" as="geometry" />
        </mxCell>
        <mxCell id="kBf8COJMeBuEFkWBFfI5-113" value="M" style="text;html=1;align=center;verticalAlign=middle;resizable=0;points=[];autosize=1;strokeColor=none;fillColor=none;" vertex="1" parent="1">
          <mxGeometry x="635" y="328" width="30" height="30" as="geometry" />
        </mxCell>
        <mxCell id="kBf8COJMeBuEFkWBFfI5-114" value="&lt;span style=&quot;font-size: 10px;&quot;&gt;semestre&lt;/span&gt;" style="ellipse;whiteSpace=wrap;html=1;" vertex="1" parent="1">
          <mxGeometry x="1092.5" y="510" width="65" height="25" as="geometry" />
        </mxCell>
        <mxCell id="kBf8COJMeBuEFkWBFfI5-115" value="" style="endArrow=none;html=1;rounded=0;entryX=0.5;entryY=1;entryDx=0;entryDy=0;exitX=0.5;exitY=0;exitDx=0;exitDy=0;" edge="1" parent="1" source="kBf8COJMeBuEFkWBFfI5-114" target="kBf8COJMeBuEFkWBFfI5-7">
          <mxGeometry width="50" height="50" relative="1" as="geometry">
            <mxPoint x="810" y="570" as="sourcePoint" />
            <mxPoint x="860" y="520" as="targetPoint" />
          </mxGeometry>
        </mxCell>
        <mxCell id="kBf8COJMeBuEFkWBFfI5-116" value="1" style="edgeLabel;html=1;align=center;verticalAlign=middle;resizable=0;points=[];" vertex="1" connectable="0" parent="1">
          <mxGeometry x="1135" y="190" as="geometry" />
        </mxCell>
        <mxCell id="kBf8COJMeBuEFkWBFfI5-117" value="N" style="text;html=1;align=center;verticalAlign=middle;resizable=0;points=[];autosize=1;strokeColor=none;fillColor=none;" vertex="1" parent="1">
          <mxGeometry x="1060" y="310" width="30" height="30" as="geometry" />
        </mxCell>
        <mxCell id="kBf8COJMeBuEFkWBFfI5-118" value="" style="endArrow=none;html=1;rounded=0;" edge="1" parent="1">
          <mxGeometry width="50" height="50" relative="1" as="geometry">
            <mxPoint x="25" y="400" as="sourcePoint" />
            <mxPoint x="65" y="400" as="targetPoint" />
          </mxGeometry>
        </mxCell>
        <mxCell id="kBf8COJMeBuEFkWBFfI5-119" value="" style="endArrow=none;html=1;rounded=0;" edge="1" parent="1">
          <mxGeometry width="50" height="50" relative="1" as="geometry">
            <mxPoint x="331" y="99.5" as="sourcePoint" />
            <mxPoint x="371" y="99.5" as="targetPoint" />
          </mxGeometry>
        </mxCell>
        <mxCell id="kBf8COJMeBuEFkWBFfI5-120" value="" style="endArrow=none;html=1;rounded=0;" edge="1" parent="1">
          <mxGeometry width="50" height="50" relative="1" as="geometry">
            <mxPoint x="620" y="290" as="sourcePoint" />
            <mxPoint x="660" y="290" as="targetPoint" />
          </mxGeometry>
        </mxCell>
        <mxCell id="kBf8COJMeBuEFkWBFfI5-121" value="" style="endArrow=none;html=1;rounded=0;" edge="1" parent="1">
          <mxGeometry width="50" height="50" relative="1" as="geometry">
            <mxPoint x="235" y="250" as="sourcePoint" />
            <mxPoint x="275" y="250" as="targetPoint" />
          </mxGeometry>
        </mxCell>
        <mxCell id="kBf8COJMeBuEFkWBFfI5-122" value="" style="endArrow=none;html=1;rounded=0;" edge="1" parent="1">
          <mxGeometry width="50" height="50" relative="1" as="geometry">
            <mxPoint x="1300" y="528" as="sourcePoint" />
            <mxPoint x="1300" y="528" as="targetPoint" />
            <Array as="points">
              <mxPoint x="1340" y="528" />
            </Array>
          </mxGeometry>
        </mxCell>
        <mxCell id="kBf8COJMeBuEFkWBFfI5-123" value="" style="endArrow=none;html=1;rounded=0;" edge="1" parent="1">
          <mxGeometry width="50" height="50" relative="1" as="geometry">
            <mxPoint x="1110" y="153" as="sourcePoint" />
            <mxPoint x="1140" y="152.5" as="targetPoint" />
          </mxGeometry>
        </mxCell>
        <mxCell id="kBf8COJMeBuEFkWBFfI5-124" value="" style="endArrow=none;html=1;rounded=0;" edge="1" parent="1">
          <mxGeometry width="50" height="50" relative="1" as="geometry">
            <mxPoint x="935" y="528" as="sourcePoint" />
            <mxPoint x="975" y="528" as="targetPoint" />
          </mxGeometry>
        </mxCell>
        <mxCell id="kBf8COJMeBuEFkWBFfI5-127" value="id" style="ellipse;whiteSpace=wrap;html=1;fillColor=#ffe6cc;strokeColor=#d79b00;" vertex="1" parent="1">
          <mxGeometry x="940" y="280" width="60" height="30" as="geometry" />
        </mxCell>
        <mxCell id="kBf8COJMeBuEFkWBFfI5-128" value="" style="endArrow=none;html=1;rounded=0;" edge="1" parent="1">
          <mxGeometry width="50" height="50" relative="1" as="geometry">
            <mxPoint x="955" y="302.82" as="sourcePoint" />
            <mxPoint x="985" y="302.82" as="targetPoint" />
          </mxGeometry>
        </mxCell>
      </root>
    </mxGraphModel>
  </diagram>
</mxfile>
